<?xml version="1.0" encoding="UTF-8"?>
<!DOCTYPE svg PUBLIC "-//W3C//DTD SVG 1.1//EN" "http://www.w3.org/Graphics/SVG/1.1/DTD/svg11.dtd">
<!-- Creator: CorelDRAW 2018 (64-Bit) -->
<svg xmlns="http://www.w3.org/2000/svg" xml:space="preserve" width="62px" height="41px" version="1.1" style="shape-rendering:geometricPrecision; text-rendering:geometricPrecision; image-rendering:optimizeQuality; fill-rule:evenodd; clip-rule:evenodd"
viewBox="0 0 1.74 1.14"
 xmlns:xlink="http://www.w3.org/1999/xlink">
 <defs>
  <style type="text/css">
   <![CDATA[
    .fil1 {fill:#030402}
    .fil0 {fill:#2395F3}
   ]]>
  </style>
 </defs>
 <g id="Слой_x0020_1">
  <metadata id="CorelCorpID_0Corel-Layer"/>
  <path class="fil0" d="M0.36 1.14l0.1 0c0.07,-0.1 0.12,-0.31 0.16,-0.45 0.08,0.11 0.12,0.3 0.16,0.45l0.13 0c0.06,-0.1 0.33,-0.97 0.35,-1.13l-0.16 0c-0.1,0.23 -0.16,0.7 -0.26,0.85 -0.15,-0.56 -0.07,-0.34 0.04,-0.85l-0.15 0 -0.09 0.34 -0.11 -0.35 -0.14 0.01c0.06,0.33 0.22,0.52 0.02,0.85l-0.24 -0.86 -0.17 0.01c0.09,0.28 0.23,0.95 0.36,1.13z"/>
  <path class="fil1" d="M1.51 0.89c-0.07,0.11 -0.41,0.02 -0.66,-0.06l-0.08 0.17c0.29,0.09 0.91,0.23 0.97,-0.13 0.03,-0.43 -1.03,-0.24 -0.66,-0.55 0.23,-0.07 0.34,0 0.54,0.04l0.07 -0.12c-0.22,-0.19 -0.81,-0.16 -0.86,0.13 -0.08,0.43 0.81,0.16 0.68,0.52z"/>
 </g>
</svg>
