<?xml version="1.0" encoding="UTF-8"?>
<!DOCTYPE svg PUBLIC "-//W3C//DTD SVG 1.1//EN" "http://www.w3.org/Graphics/SVG/1.1/DTD/svg11.dtd">
<!-- Creator: CorelDRAW 2018 (64-Bit) -->
<svg xmlns="http://www.w3.org/2000/svg" xml:space="preserve" width="210mm" height="297mm" version="1.1" style="shape-rendering:geometricPrecision; text-rendering:geometricPrecision; image-rendering:optimizeQuality; fill-rule:evenodd; clip-rule:evenodd"
viewBox="0 0 21000 29700"
 xmlns:xlink="http://www.w3.org/1999/xlink">
 <defs>
  <style type="text/css">
   <![CDATA[
    .fil0 {fill:#AB47BC}
   ]]>
  </style>
 </defs>
 <g id="Слой_x0020_1">
  <metadata id="CorelCorpID_0Corel-Layer"/>
  <g id="_2917346717280">
   <g>
    <path class="fil0" d="M4886.88 10691.27c-0.03,-145.35 137.13,-264.19 272.55,-397.78l4512.46 -3918.09c71.52,-58.5 96.83,-96.15 163.8,-154.66l453.37 -358.36c110.2,-53.12 -24.45,-39.54 101.11,-39.53 115.56,0 176.52,23.3 304.33,119.28l2243.98 1954.19c65.44,55.76 92.89,104.02 158.8,157.51l103.56 73.98c36.27,28.84 41.56,37.38 73.71,67.34 79,73.61 117.11,90.64 193.53,159.11 61.41,55.01 98.37,108.36 158.73,157.67l1885.88 1641.78c7.73,6.77 31.19,25.14 39.42,31.47l41.8 29.42c6.09,4.49 14.95,10.06 20.99,14.59l229.31 229.27c311.08,322.75 -90.67,514.92 -127.09,514.9 -198.65,-0.12 -112.47,22.84 -275.84,-76.74 -207.95,-126.76 -191.32,-231.16 -358.88,-275.62l0.99 5045.5c1.88,174.9 -15.26,457.53 -248.22,457.48l-8819.44 0.08c-85.92,0 -189.69,-98.25 -220.6,-167.24 -67.99,-151.78 -26.45,-5114.07 -26.63,-5335.82 -132.52,37.55 -154.42,114.67 -256.44,201.53 -413.14,351.79 -625.15,2.55 -625.18,-131.26zm-3492.54 -530.93l0 1626.3 37.2 243.02c22.07,353.63 221.01,1177.7 307.81,1491.56 275.17,995.02 767.49,1953.71 1359.2,2767.59l511.13 654.91c201.76,245.3 885.19,873.74 1140.02,1081.04l355.64 278.51c8.13,6.36 31.58,24.72 40.03,30.84 6.12,4.43 14.62,10.39 20.87,14.71 1294.5,893.69 2491.07,1365.85 4053.44,1591.5 86.61,12.51 111.4,19.23 220.4,26.5 93.89,6.26 145.94,-2.45 208.97,37.78l1552.8 0c44.81,-28.57 -2.31,-13.12 78.14,-27.49l351.49 -36.61c848.49,-125.5 1012.09,-175.55 1851.21,-441.53l205.08 -78.23c131.29,-56.53 220.07,-90.26 347.96,-144.77l153.22 -59.55c7.98,-3.29 17.36,-6.92 25.19,-10.34 1794.64,-783.59 3445.11,-2443.4 4325.23,-4211.01 372.97,-749.05 701.22,-1751.87 834.77,-2621.46 8.87,-57.74 7.6,-68.25 13.26,-129.06 11.06,-118.85 16.95,-127.01 26.72,-219.86l42.44 -241.1 0 -1620.2 -19.7 -51.51c-2.09,-8.23 -5.41,-18.68 -7.36,-28.18 -2.07,-10.04 -3.39,-19.5 -5.11,-30.36l-73.7 -597.79c-17.99,-91.2 -20.83,-113.93 -38.61,-206.69 -55.53,-289.84 -129.92,-571.23 -200.74,-822.94 -424.43,-1508.55 -1209.25,-2762.7 -2291.82,-3846.49l-404.5 -405.76c-432.76,-376.82 -1210.53,-930.82 -1991.48,-1325.72 -700.78,-354.35 -1510.67,-611.11 -2301.9,-767.39l-674.54 -101.62c-92.79,-4.98 -146.1,4.17 -211.26,-36.56l-1620.78 0 -109.42 32.39c-43.28,5.92 -91.51,2.09 -136.47,4.91 -297.75,18.7 -1113.17,198.52 -1444.4,284.64 -9.58,2.49 -18.81,4.7 -28.23,7.35 -463.9,130.24 -1102.27,390.8 -1493.01,587.8l-980.54 571.62c-266.84,179.66 -792.37,552.76 -1022.99,776.94l-805.85 815.2c-119.01,152.44 57.39,-74.2 -29.76,41.44 -29.91,39.68 -17.79,26.16 -46.16,60.17 -1037.82,1243.9 -1665.82,2539.9 -1985.97,4152.2l-137.92 883.3z"/>
    <path class="fil0" d="M9323.02 11643.65l2196.03 0 0 2151.76c-369.61,-242.6 -753.69,-920.26 -1092.85,-920.04 -238.6,0.15 -320.29,167.26 -591.8,434.99 -144.88,142.87 -349.81,387.24 -502.55,486.1l-8.83 -2152.81zm8.83 -1410.99l2187.2 0 0 705.55 -2187.2 0 0 -705.55zm-705.57 70.55l0 4374.45c0,244.61 183.51,429.06 479.18,339.96 198.12,-59.71 1033.05,-1081.85 1355.21,-1292.46 44.29,66.59 62.19,122.55 105.96,176.34 63.93,78.55 78.06,65.61 151.68,131.34 527.36,470.94 895.93,1137.26 1306.82,975.5 162.03,-63.79 201.49,-187.2 201.51,-399.24l-2.02 -3565.05c0,-570.44 109.46,-1517.02 -846.67,-1517.02 -425.83,0 -1910.65,-51.33 -2232.39,60.52l-211.53 107.2c-14.1,10.68 -41.37,36.17 -55.56,50.05 -118.35,115.81 -252.19,336.02 -252.19,558.41z"/>
   </g>
  </g>
 </g>
</svg>
