<svg xmlns="http://www.w3.org/2000/svg" viewBox="0 0 13.33 16"><title>Ресурс 1</title><g id="Слой_2" data-name="Слой 2"><g id="Слой_1-2" data-name="Слой 1"><path d="M12,6a1.41,1.41,0,0,0-.68.18A1.33,1.33,0,0,0,10,5a1.37,1.37,0,0,0-.86.31A1.34,1.34,0,0,0,8,4.67a1.29,1.29,0,0,0-.67.18V1.33a1.33,1.33,0,0,0-2.66,0v8.92a.33.33,0,0,1-.16.29.33.33,0,0,1-.33,0L2,9.48a1.36,1.36,0,0,0-.63-.15A1.42,1.42,0,0,0,0,10.75V11a.32.32,0,0,0,.11.24L4,14.83a4.3,4.3,0,0,0,3,1.17H9a4.33,4.33,0,0,0,4.33-4.33V7.33A1.33,1.33,0,0,0,12,6Zm.67,5.67A3.67,3.67,0,0,1,9,15.33H6.91a3.67,3.67,0,0,1-2.5-1L.67,10.86v-.11A.74.74,0,0,1,1.41,10a.81.81,0,0,1,.34.08l2.14,1.07a1,1,0,0,0,1,0,1,1,0,0,0,.47-.86V1.33a.67.67,0,0,1,1.34,0v5a.33.33,0,1,0,.66,0V6A.67.67,0,0,1,8.67,6v.33h0a.33.33,0,1,0,.66,0h0a.67.67,0,0,1,1.34,0v1a.33.33,0,1,0,.66,0,.67.67,0,0,1,1.34,0Z"/></g></g></svg>